<mxfile host="65bd71144e">
    <diagram id="xb1dpKppTRwN7yRaJRlE" name="Page-1">
        <mxGraphModel dx="2236" dy="1914" grid="1" gridSize="10" guides="1" tooltips="1" connect="1" arrows="1" fold="1" page="1" pageScale="1" pageWidth="850" pageHeight="1100" background="#ffffff" math="0" shadow="0">
            <root>
                <mxCell id="0"/>
                <mxCell id="1" parent="0"/>
                <mxCell id="2" value="twfe.utility.py" style="whiteSpace=wrap;html=1;fillColor=#60a917;fontColor=#ffffff;strokeColor=#2D7600;" parent="1" vertex="1">
                    <mxGeometry x="350" y="-470" width="120" height="60" as="geometry"/>
                </mxCell>
                <mxCell id="20" style="edgeStyle=none;html=1;exitX=1;exitY=0.5;exitDx=0;exitDy=0;entryX=0;entryY=0.25;entryDx=0;entryDy=0;strokeColor=#000000;" parent="1" source="3" target="19" edge="1">
                    <mxGeometry relative="1" as="geometry"/>
                </mxCell>
                <mxCell id="3" value="stack_did_gata" style="whiteSpace=wrap;html=1;fillColor=#60a917;fontColor=#ffffff;strokeColor=#2D7600;" parent="1" vertex="1">
                    <mxGeometry x="360" y="-330" width="120" height="60" as="geometry"/>
                </mxCell>
                <mxCell id="6" style="edgeStyle=none;html=1;exitX=1;exitY=0.5;exitDx=0;exitDy=0;entryX=0;entryY=0.5;entryDx=0;entryDy=0;strokeColor=#2D7600;fillColor=#60a917;" parent="1" source="4" target="3" edge="1">
                    <mxGeometry relative="1" as="geometry"/>
                </mxCell>
                <mxCell id="4" value="get_stacked_masks" style="whiteSpace=wrap;html=1;fillColor=#60a917;fontColor=#ffffff;strokeColor=#2D7600;" parent="1" vertex="1">
                    <mxGeometry x="170" y="-300" width="120" height="60" as="geometry"/>
                </mxCell>
                <mxCell id="8" style="edgeStyle=none;html=1;exitX=1;exitY=0.25;exitDx=0;exitDy=0;entryX=0;entryY=0.75;entryDx=0;entryDy=0;strokeColor=#2D7600;fillColor=#60a917;" parent="1" source="5" target="3" edge="1">
                    <mxGeometry relative="1" as="geometry"/>
                </mxCell>
                <mxCell id="5" value="get_cohorts" style="whiteSpace=wrap;html=1;fillColor=#60a917;fontColor=#ffffff;strokeColor=#2D7600;" parent="1" vertex="1">
                    <mxGeometry x="170" y="-220" width="120" height="60" as="geometry"/>
                </mxCell>
                <mxCell id="15" style="edgeStyle=none;html=1;exitX=1;exitY=0.5;exitDx=0;exitDy=0;entryX=0;entryY=0.25;entryDx=0;entryDy=0;strokeColor=#2D7600;fillColor=#60a917;" parent="1" source="11" target="4" edge="1">
                    <mxGeometry relative="1" as="geometry"/>
                </mxCell>
                <mxCell id="11" value="never_treated_mask" style="whiteSpace=wrap;html=1;fillColor=#60a917;fontColor=#ffffff;strokeColor=#2D7600;" parent="1" vertex="1">
                    <mxGeometry x="-30" y="-340" width="120" height="60" as="geometry"/>
                </mxCell>
                <mxCell id="14" style="edgeStyle=none;html=1;entryX=0;entryY=0.5;entryDx=0;entryDy=0;strokeColor=#2D7600;fillColor=#60a917;" parent="1" source="13" target="4" edge="1">
                    <mxGeometry relative="1" as="geometry"/>
                </mxCell>
                <mxCell id="13" value="cohort_mask" style="whiteSpace=wrap;html=1;fillColor=#60a917;fontColor=#ffffff;strokeColor=#2D7600;" parent="1" vertex="1">
                    <mxGeometry x="-30" y="-270" width="120" height="60" as="geometry"/>
                </mxCell>
                <mxCell id="16" value="add_stack_fe" style="whiteSpace=wrap;html=1;fillColor=#60a917;fontColor=#ffffff;strokeColor=#2D7600;" parent="1" vertex="1">
                    <mxGeometry x="350" y="-200" width="120" height="60" as="geometry"/>
                </mxCell>
                <mxCell id="17" value="twfe.twfe.py" style="whiteSpace=wrap;html=1;fillColor=#fff2cc;gradientColor=#ffd966;strokeColor=#d6b656;fontColor=#000000;" parent="1" vertex="1">
                    <mxGeometry x="870" y="-526" width="120" height="60" as="geometry"/>
                </mxCell>
                <mxCell id="18" value="TWFE" style="whiteSpace=wrap;html=1;fillColor=#fff2cc;gradientColor=#ffd966;strokeColor=#d6b656;fontColor=#000000;" parent="1" vertex="1">
                    <mxGeometry x="970" y="-390" width="120" height="60" as="geometry"/>
                </mxCell>
                <mxCell id="19" value="twfe.init" style="whiteSpace=wrap;html=1;fillColor=#fff2cc;gradientColor=#ffd966;strokeColor=#d6b656;fontColor=#000000;" parent="1" vertex="1">
                    <mxGeometry x="970" y="-315" width="120" height="60" as="geometry"/>
                </mxCell>
                <mxCell id="21" value="tools.relative periods.py" style="whiteSpace=wrap;html=1;fillColor=#008a00;fontColor=#ffffff;strokeColor=#005700;" parent="1" vertex="1">
                    <mxGeometry x="530" y="-480" width="120" height="60" as="geometry"/>
                </mxCell>
                <mxCell id="30" style="edgeStyle=none;html=1;exitX=1;exitY=0.5;exitDx=0;exitDy=0;entryX=0;entryY=0.5;entryDx=0;entryDy=0;strokeColor=#000000;" parent="1" source="22" target="29" edge="1">
                    <mxGeometry relative="1" as="geometry"/>
                </mxCell>
                <mxCell id="22" value="cohort_info_table" style="whiteSpace=wrap;html=1;fillColor=#008a00;fontColor=#ffffff;strokeColor=#005700;" parent="1" vertex="1">
                    <mxGeometry x="530" y="-410" width="120" height="60" as="geometry"/>
                </mxCell>
                <mxCell id="27" style="edgeStyle=none;html=1;exitX=1;exitY=0.5;exitDx=0;exitDy=0;entryX=0;entryY=0.5;entryDx=0;entryDy=0;strokeColor=#000000;" parent="1" source="23" target="25" edge="1">
                    <mxGeometry relative="1" as="geometry"/>
                </mxCell>
                <mxCell id="23" value="get_relative_periods" style="whiteSpace=wrap;html=1;fillColor=#008a00;fontColor=#ffffff;strokeColor=#005700;" parent="1" vertex="1">
                    <mxGeometry x="540" y="-160" width="120" height="60" as="geometry"/>
                </mxCell>
                <mxCell id="31" style="edgeStyle=none;html=1;exitX=1;exitY=0.5;exitDx=0;exitDy=0;entryX=0;entryY=0.25;entryDx=0;entryDy=0;strokeColor=#000000;" parent="1" source="24" target="29" edge="1">
                    <mxGeometry relative="1" as="geometry"/>
                </mxCell>
                <mxCell id="24" value="get_relative_periods dummies" style="whiteSpace=wrap;html=1;fillColor=#008a00;fontColor=#ffffff;strokeColor=#005700;" parent="1" vertex="1">
                    <mxGeometry x="550" y="-254" width="120" height="60" as="geometry"/>
                </mxCell>
                <mxCell id="32" style="edgeStyle=none;html=1;exitX=1;exitY=0.25;exitDx=0;exitDy=0;entryX=0;entryY=0.75;entryDx=0;entryDy=0;strokeColor=#000000;" parent="1" source="25" target="29" edge="1">
                    <mxGeometry relative="1" as="geometry"/>
                </mxCell>
                <mxCell id="25" value="bin_relative_periods&lt;br&gt;dummies" style="whiteSpace=wrap;html=1;fillColor=#008a00;fontColor=#ffffff;strokeColor=#005700;" parent="1" vertex="1">
                    <mxGeometry x="690" y="-186" width="120" height="60" as="geometry"/>
                </mxCell>
                <mxCell id="26" value="reindex_periods" style="whiteSpace=wrap;html=1;fillColor=#008a00;fontColor=#ffffff;strokeColor=#005700;" parent="1" vertex="1">
                    <mxGeometry x="540" y="-80" width="120" height="60" as="geometry"/>
                </mxCell>
                <mxCell id="28" value="twfe.fit" style="whiteSpace=wrap;html=1;fillColor=#fff2cc;gradientColor=#ffd966;strokeColor=#d6b656;fontColor=#000000;" parent="1" vertex="1">
                    <mxGeometry x="970" y="-145" width="120" height="60" as="geometry"/>
                </mxCell>
                <mxCell id="29" value="_get_relative_periods" style="whiteSpace=wrap;html=1;fillColor=#fff2cc;gradientColor=#ffd966;strokeColor=#d6b656;fontColor=#000000;" parent="1" vertex="1">
                    <mxGeometry x="970" y="-235" width="120" height="60" as="geometry"/>
                </mxCell>
                <mxCell id="33" value="tools.utility.py" style="whiteSpace=wrap;html=1;fillColor=#f8cecc;gradientColor=#ea6b66;strokeColor=#b85450;fontColor=#000000;" parent="1" vertex="1">
                    <mxGeometry x="190" y="-470" width="120" height="60" as="geometry"/>
                </mxCell>
                <mxCell id="34" value="tools.panel_utility,py" style="whiteSpace=wrap;html=1;fillColor=#1ba1e2;fontColor=#ffffff;strokeColor=#006EAF;" parent="1" vertex="1">
                    <mxGeometry x="-680" y="380" width="120" height="60" as="geometry"/>
                </mxCell>
                <mxCell id="47" style="edgeStyle=none;html=1;exitX=1;exitY=0.5;exitDx=0;exitDy=0;entryX=0;entryY=0.5;entryDx=0;entryDy=0;strokeColor=#000000;" parent="1" source="35" target="36" edge="1">
                    <mxGeometry relative="1" as="geometry"/>
                </mxCell>
                <mxCell id="35" value="map_dt_to_init" style="whiteSpace=wrap;html=1;fillColor=#1ba1e2;fontColor=#ffffff;strokeColor=#006EAF;" parent="1" vertex="1">
                    <mxGeometry x="-830" y="516" width="120" height="60" as="geometry"/>
                </mxCell>
                <mxCell id="60" style="edgeStyle=none;html=1;exitX=1;exitY=0.5;exitDx=0;exitDy=0;entryX=0;entryY=0.5;entryDx=0;entryDy=0;strokeColor=#000000;" parent="1" source="36" target="52" edge="1">
                    <mxGeometry relative="1" as="geometry"/>
                </mxCell>
                <mxCell id="36" value="map_dt_series_to_init" style="whiteSpace=wrap;html=1;fillColor=#1ba1e2;fontColor=#ffffff;strokeColor=#006EAF;" parent="1" vertex="1">
                    <mxGeometry x="-680" y="516" width="120" height="60" as="geometry"/>
                </mxCell>
                <mxCell id="68" style="edgeStyle=none;html=1;exitX=1;exitY=0.5;exitDx=0;exitDy=0;entryX=0;entryY=0.5;entryDx=0;entryDy=0;strokeColor=#000000;" parent="1" source="37" target="62" edge="1">
                    <mxGeometry relative="1" as="geometry"/>
                </mxCell>
                <mxCell id="37" value="panel_has_gaps" style="whiteSpace=wrap;html=1;fillColor=#1ba1e2;fontColor=#ffffff;strokeColor=#006EAF;" parent="1" vertex="1">
                    <mxGeometry x="-680" y="590" width="120" height="60" as="geometry"/>
                </mxCell>
                <mxCell id="69" style="edgeStyle=none;html=1;exitX=1;exitY=0.5;exitDx=0;exitDy=0;entryX=0;entryY=0.75;entryDx=0;entryDy=0;strokeColor=#000000;" parent="1" source="38" target="62" edge="1">
                    <mxGeometry relative="1" as="geometry"/>
                </mxCell>
                <mxCell id="38" value="reindex_gaps" style="whiteSpace=wrap;html=1;fillColor=#1ba1e2;fontColor=#ffffff;strokeColor=#006EAF;" parent="1" vertex="1">
                    <mxGeometry x="-680" y="664" width="120" height="60" as="geometry"/>
                </mxCell>
                <mxCell id="39" value="reindex_times" style="whiteSpace=wrap;html=1;fillColor=#1ba1e2;fontColor=#ffffff;strokeColor=#006EAF;" parent="1" vertex="1">
                    <mxGeometry x="-680" y="737" width="120" height="60" as="geometry"/>
                </mxCell>
                <mxCell id="40" value="reindex_times" style="whiteSpace=wrap;html=1;fillColor=#1ba1e2;fontColor=#ffffff;strokeColor=#006EAF;" parent="1" vertex="1">
                    <mxGeometry x="-680" y="811" width="120" height="60" as="geometry"/>
                </mxCell>
                <mxCell id="242" style="edgeStyle=none;html=1;exitX=1;exitY=0.25;exitDx=0;exitDy=0;strokeColor=#000000;entryX=0.25;entryY=1;entryDx=0;entryDy=0;" edge="1" parent="1" source="41" target="236">
                    <mxGeometry relative="1" as="geometry">
                        <mxPoint x="2729.999999999999" y="-282.3529411764706" as="targetPoint"/>
                    </mxGeometry>
                </mxCell>
                <mxCell id="41" value="is_panel_balanced" style="whiteSpace=wrap;html=1;fillColor=#1ba1e2;fontColor=#ffffff;strokeColor=#006EAF;" parent="1" vertex="1">
                    <mxGeometry x="-680" y="885" width="120" height="60" as="geometry"/>
                </mxCell>
                <mxCell id="48" style="edgeStyle=none;html=1;exitX=1;exitY=0.5;exitDx=0;exitDy=0;entryX=0;entryY=0.5;entryDx=0;entryDy=0;strokeColor=#000000;" parent="1" source="42" target="43" edge="1">
                    <mxGeometry relative="1" as="geometry"/>
                </mxCell>
                <mxCell id="42" value="n_entities_per_window" style="whiteSpace=wrap;html=1;fillColor=#1ba1e2;fontColor=#ffffff;strokeColor=#006EAF;" parent="1" vertex="1">
                    <mxGeometry x="-830" y="959" width="120" height="60" as="geometry"/>
                </mxCell>
                <mxCell id="43" value="make_panel_balanced" style="whiteSpace=wrap;html=1;fillColor=#1ba1e2;fontColor=#ffffff;strokeColor=#006EAF;" parent="1" vertex="1">
                    <mxGeometry x="-680" y="959" width="120" height="60" as="geometry"/>
                </mxCell>
                <mxCell id="212" style="edgeStyle=none;html=1;exitX=1;exitY=0.5;exitDx=0;exitDy=0;entryX=0.117;entryY=0.417;entryDx=0;entryDy=0;entryPerimeter=0;strokeColor=#000000;" edge="1" parent="1" source="44" target="211">
                    <mxGeometry relative="1" as="geometry"/>
                </mxCell>
                <mxCell id="240" style="edgeStyle=none;html=1;exitX=1;exitY=0.5;exitDx=0;exitDy=0;strokeColor=#000000;entryX=0;entryY=0.5;entryDx=0;entryDy=0;" edge="1" parent="1" source="44" target="239">
                    <mxGeometry relative="1" as="geometry">
                        <mxPoint x="2773.529411764705" y="-300" as="targetPoint"/>
                    </mxGeometry>
                </mxCell>
                <mxCell id="44" value="find_time varying_covars" style="whiteSpace=wrap;html=1;fillColor=#1ba1e2;fontColor=#ffffff;strokeColor=#006EAF;" parent="1" vertex="1">
                    <mxGeometry x="-680" y="1032" width="120" height="60" as="geometry"/>
                </mxCell>
                <mxCell id="238" style="edgeStyle=none;html=1;exitX=1;exitY=0.25;exitDx=0;exitDy=0;strokeColor=#000000;entryX=0;entryY=0.25;entryDx=0;entryDy=0;" edge="1" parent="1" source="45" target="239">
                    <mxGeometry relative="1" as="geometry">
                        <mxPoint x="2749.999999999999" y="-380" as="targetPoint"/>
                    </mxGeometry>
                </mxCell>
                <mxCell id="45" value="delta_col_to_create" style="whiteSpace=wrap;html=1;fillColor=#1ba1e2;fontColor=#ffffff;strokeColor=#006EAF;" parent="1" vertex="1">
                    <mxGeometry x="-680" y="1106" width="120" height="60" as="geometry"/>
                </mxCell>
                <mxCell id="46" value="panel_2_cross section_diff" style="whiteSpace=wrap;html=1;fillColor=#1ba1e2;fontColor=#ffffff;strokeColor=#006EAF;" parent="1" vertex="1">
                    <mxGeometry x="-680" y="1180" width="120" height="60" as="geometry"/>
                </mxCell>
                <mxCell id="243" style="edgeStyle=none;html=1;exitX=1;exitY=0.5;exitDx=0;exitDy=0;entryX=0;entryY=0.5;entryDx=0;entryDy=0;strokeColor=#000000;" edge="1" parent="1" source="49" target="235">
                    <mxGeometry relative="1" as="geometry"/>
                </mxCell>
                <mxCell id="49" value="_ValidData" style="whiteSpace=wrap;html=1;fillColor=#0050ef;fontColor=#ffffff;strokeColor=#001DBC;" parent="1" vertex="1">
                    <mxGeometry x="-510" y="516" width="120" height="60" as="geometry"/>
                </mxCell>
                <mxCell id="50" value="tools.panel_validation.py" style="whiteSpace=wrap;html=1;fillColor=#0050ef;fontColor=#ffffff;strokeColor=#001DBC;" parent="1" vertex="1">
                    <mxGeometry x="-500" y="390" width="120" height="60" as="geometry"/>
                </mxCell>
                <mxCell id="51" value="get_division_name" style="whiteSpace=wrap;html=1;fillColor=#0050ef;fontColor=#ffffff;strokeColor=#001DBC;" parent="1" vertex="1">
                    <mxGeometry x="-510" y="590" width="120" height="60" as="geometry"/>
                </mxCell>
                <mxCell id="52" value="_convert_times" style="whiteSpace=wrap;html=1;fillColor=#0050ef;fontColor=#ffffff;strokeColor=#001DBC;" parent="1" vertex="1">
                    <mxGeometry x="-510" y="673" width="120" height="60" as="geometry"/>
                </mxCell>
                <mxCell id="53" value="invalid_columns" style="whiteSpace=wrap;html=1;fillColor=#0050ef;fontColor=#ffffff;strokeColor=#001DBC;" parent="1" vertex="1">
                    <mxGeometry x="-510" y="747" width="120" height="60" as="geometry"/>
                </mxCell>
                <mxCell id="54" value="error_ir_man, in_vars" style="whiteSpace=wrap;html=1;fillColor=#0050ef;fontColor=#ffffff;strokeColor=#001DBC;" parent="1" vertex="1">
                    <mxGeometry x="-510" y="820" width="120" height="60" as="geometry"/>
                </mxCell>
                <mxCell id="55" value="is_single_event" style="whiteSpace=wrap;html=1;fillColor=#0050ef;fontColor=#ffffff;strokeColor=#001DBC;" parent="1" vertex="1">
                    <mxGeometry x="-510" y="894" width="120" height="60" as="geometry"/>
                </mxCell>
                <mxCell id="56" value="pre_process_treated before" style="whiteSpace=wrap;html=1;fillColor=#0050ef;fontColor=#ffffff;strokeColor=#001DBC;" parent="1" vertex="1">
                    <mxGeometry x="-510" y="968" width="120" height="60" as="geometry"/>
                </mxCell>
                <mxCell id="57" value="pre_process_treated after" style="whiteSpace=wrap;html=1;fillColor=#0050ef;fontColor=#ffffff;strokeColor=#001DBC;" parent="1" vertex="1">
                    <mxGeometry x="-510" y="1042" width="120" height="60" as="geometry"/>
                </mxCell>
                <mxCell id="58" value="pre_process_no&lt;br&gt;never_treated" style="whiteSpace=wrap;html=1;fillColor=#0050ef;fontColor=#ffffff;strokeColor=#001DBC;" parent="1" vertex="1">
                    <mxGeometry x="-510" y="1115" width="120" height="60" as="geometry"/>
                </mxCell>
                <mxCell id="59" value="preprocess_cohort data" style="whiteSpace=wrap;html=1;fillColor=#0050ef;fontColor=#ffffff;strokeColor=#001DBC;" parent="1" vertex="1">
                    <mxGeometry x="-510" y="1180" width="120" height="60" as="geometry"/>
                </mxCell>
                <mxCell id="61" value="toos.relative_periods.py" style="whiteSpace=wrap;html=1;fillColor=#d80073;fontColor=#ffffff;strokeColor=#A50040;" parent="1" vertex="1">
                    <mxGeometry x="-340" y="392" width="120" height="60" as="geometry"/>
                </mxCell>
                <mxCell id="62" value="cohort_info_table" style="whiteSpace=wrap;html=1;fillColor=#d80073;fontColor=#ffffff;strokeColor=#A50040;" parent="1" vertex="1">
                    <mxGeometry x="-340" y="528" width="120" height="60" as="geometry"/>
                </mxCell>
                <mxCell id="63" value="get_relative_periods" style="whiteSpace=wrap;html=1;fillColor=#d80073;fontColor=#ffffff;strokeColor=#A50040;" parent="1" vertex="1">
                    <mxGeometry x="-350" y="628" width="120" height="60" as="geometry"/>
                </mxCell>
                <mxCell id="64" value="get_relative_periods" style="whiteSpace=wrap;html=1;fillColor=#d80073;fontColor=#ffffff;strokeColor=#A50040;" parent="1" vertex="1">
                    <mxGeometry x="-340" y="715" width="120" height="60" as="geometry"/>
                </mxCell>
                <mxCell id="65" value="get_relative_periods dummies" style="whiteSpace=wrap;html=1;fillColor=#d80073;fontColor=#ffffff;strokeColor=#A50040;" parent="1" vertex="1">
                    <mxGeometry x="-340" y="803" width="120" height="60" as="geometry"/>
                </mxCell>
                <mxCell id="66" value="bin_relative_periods dummies" style="whiteSpace=wrap;html=1;fillColor=#d80073;fontColor=#ffffff;strokeColor=#A50040;" parent="1" vertex="1">
                    <mxGeometry x="-340" y="892" width="120" height="60" as="geometry"/>
                </mxCell>
                <mxCell id="67" value="reindex_periods" style="whiteSpace=wrap;html=1;fillColor=#d80073;fontColor=#ffffff;strokeColor=#A50040;" parent="1" vertex="1">
                    <mxGeometry x="-340" y="972" width="120" height="60" as="geometry"/>
                </mxCell>
                <mxCell id="70" value="tools.utilitiy.py" style="whiteSpace=wrap;html=1;fillColor=#fad7ac;strokeColor=#b46504;fontColor=#000000;" parent="1" vertex="1">
                    <mxGeometry x="-170" y="392" width="120" height="60" as="geometry"/>
                </mxCell>
                <mxCell id="71" value="parse_fe_from formula" style="whiteSpace=wrap;html=1;fillColor=#fad7ac;strokeColor=#b46504;fontColor=#000000;" parent="1" vertex="1">
                    <mxGeometry x="-170" y="516" width="120" height="60" as="geometry"/>
                </mxCell>
                <mxCell id="72" value="process_formula" style="whiteSpace=wrap;html=1;fillColor=#fad7ac;strokeColor=#b46504;fontColor=#000000;" parent="1" vertex="1">
                    <mxGeometry x="-170" y="583" width="120" height="60" as="geometry"/>
                </mxCell>
                <mxCell id="73" value="parse_fe_from formula" style="whiteSpace=wrap;html=1;fillColor=#fad7ac;strokeColor=#b46504;fontColor=#000000;" parent="1" vertex="1">
                    <mxGeometry x="-170" y="651" width="120" height="60" as="geometry"/>
                </mxCell>
                <mxCell id="74" value="group_sums" style="whiteSpace=wrap;html=1;fillColor=#fad7ac;strokeColor=#b46504;fontColor=#000000;" parent="1" vertex="1">
                    <mxGeometry x="-170" y="718" width="120" height="60" as="geometry"/>
                </mxCell>
                <mxCell id="213" style="edgeStyle=none;html=1;exitX=1;exitY=0.5;exitDx=0;exitDy=0;entryX=0.25;entryY=1;entryDx=0;entryDy=0;strokeColor=#000000;" edge="1" parent="1" source="75" target="211">
                    <mxGeometry relative="1" as="geometry"/>
                </mxCell>
                <mxCell id="75" value="group_means" style="whiteSpace=wrap;html=1;fillColor=#fad7ac;strokeColor=#b46504;fontColor=#000000;" parent="1" vertex="1">
                    <mxGeometry x="-170" y="785" width="120" height="60" as="geometry"/>
                </mxCell>
                <mxCell id="76" value="tqdm_joblib" style="whiteSpace=wrap;html=1;fillColor=#fad7ac;strokeColor=#b46504;fontColor=#000000;" parent="1" vertex="1">
                    <mxGeometry x="-170" y="852" width="120" height="60" as="geometry"/>
                </mxCell>
                <mxCell id="77" value="get_title" style="whiteSpace=wrap;html=1;fillColor=#fad7ac;strokeColor=#b46504;fontColor=#000000;" parent="1" vertex="1">
                    <mxGeometry x="-170" y="920" width="120" height="60" as="geometry"/>
                </mxCell>
                <mxCell id="78" value="sinlge_idx" style="whiteSpace=wrap;html=1;fillColor=#fad7ac;strokeColor=#b46504;fontColor=#000000;" parent="1" vertex="1">
                    <mxGeometry x="-170" y="987" width="120" height="60" as="geometry"/>
                </mxCell>
                <mxCell id="244" style="edgeStyle=none;html=1;exitX=1;exitY=0.5;exitDx=0;exitDy=0;strokeColor=#000000;entryX=0;entryY=0.25;entryDx=0;entryDy=0;" edge="1" parent="1" source="79" target="245">
                    <mxGeometry relative="1" as="geometry">
                        <mxPoint x="2719.999999999999" y="-314.70588235294116" as="targetPoint"/>
                    </mxGeometry>
                </mxCell>
                <mxCell id="79" value="capitalize_details" style="whiteSpace=wrap;html=1;fillColor=#fad7ac;strokeColor=#b46504;fontColor=#000000;" parent="1" vertex="1">
                    <mxGeometry x="-170" y="1054" width="120" height="60" as="geometry"/>
                </mxCell>
                <mxCell id="80" value="bin_start_end" style="whiteSpace=wrap;html=1;fillColor=#fad7ac;strokeColor=#b46504;fontColor=#000000;" parent="1" vertex="1">
                    <mxGeometry x="-170" y="1121" width="120" height="60" as="geometry"/>
                </mxCell>
                <mxCell id="81" value="EventStudyResult" style="whiteSpace=wrap;html=1;fillColor=#fad7ac;strokeColor=#b46504;fontColor=#000000;" parent="1" vertex="1">
                    <mxGeometry x="-170" y="1189" width="120" height="60" as="geometry"/>
                </mxCell>
                <mxCell id="82" value="flatten_cols" style="whiteSpace=wrap;html=1;fillColor=#fad7ac;strokeColor=#b46504;fontColor=#000000;" parent="1" vertex="1">
                    <mxGeometry x="-170" y="1256" width="120" height="60" as="geometry"/>
                </mxCell>
                <mxCell id="83" style="edgeStyle=none;html=1;exitX=0.25;exitY=0;exitDx=0;exitDy=0;entryX=0.348;entryY=-0.074;entryDx=0;entryDy=0;entryPerimeter=0;strokeColor=#b46504;fillColor=#fad7ac;fontColor=#000000;" parent="1" source="79" target="79" edge="1">
                    <mxGeometry relative="1" as="geometry"/>
                </mxCell>
                <mxCell id="84" value="Tools" style="whiteSpace=wrap;html=1;fontColor=#FFFFFF;fontSize=12;" parent="1" vertex="1">
                    <mxGeometry x="-545" y="220" width="265" height="120" as="geometry"/>
                </mxCell>
                <mxCell id="85" value="did.att_if.py" style="whiteSpace=wrap;html=1;fontSize=12;fillColor=#b0e3e6;strokeColor=#0e8088;fontColor=#000000;" parent="1" vertex="1">
                    <mxGeometry x="10" y="392" width="120" height="60" as="geometry"/>
                </mxCell>
                <mxCell id="86" value="dr_traditional_panel att_if" style="whiteSpace=wrap;html=1;fontSize=12;fillColor=#b0e3e6;strokeColor=#0e8088;fontColor=#000000;" parent="1" vertex="1">
                    <mxGeometry x="10" y="528" width="120" height="60" as="geometry"/>
                </mxCell>
                <mxCell id="87" value="dr_traditional_rc att_if" style="whiteSpace=wrap;html=1;fontSize=12;fillColor=#b0e3e6;strokeColor=#0e8088;fontColor=#000000;" parent="1" vertex="1">
                    <mxGeometry x="10" y="596" width="120" height="60" as="geometry"/>
                </mxCell>
                <mxCell id="88" value="dr_improved_panel att_if" style="whiteSpace=wrap;html=1;fontSize=12;fillColor=#b0e3e6;strokeColor=#0e8088;fontColor=#000000;" parent="1" vertex="1">
                    <mxGeometry x="10" y="664" width="120" height="60" as="geometry"/>
                </mxCell>
                <mxCell id="89" value="dr_improved_rc&lt;br&gt;&amp;nbsp;att_if" style="whiteSpace=wrap;html=1;fontSize=12;fillColor=#b0e3e6;strokeColor=#0e8088;fontColor=#000000;" parent="1" vertex="1">
                    <mxGeometry x="10" y="732" width="120" height="60" as="geometry"/>
                </mxCell>
                <mxCell id="90" value="reg_panel_att_if" style="whiteSpace=wrap;html=1;fontSize=12;fillColor=#b0e3e6;strokeColor=#0e8088;fontColor=#000000;" parent="1" vertex="1">
                    <mxGeometry x="10" y="800" width="120" height="60" as="geometry"/>
                </mxCell>
                <mxCell id="91" value="reg_rc_att_if" style="whiteSpace=wrap;html=1;fontSize=12;fillColor=#b0e3e6;strokeColor=#0e8088;fontColor=#000000;" parent="1" vertex="1">
                    <mxGeometry x="10" y="868" width="120" height="60" as="geometry"/>
                </mxCell>
                <mxCell id="92" value="ipw_panel_att" style="whiteSpace=wrap;html=1;fontSize=12;fillColor=#b0e3e6;strokeColor=#0e8088;fontColor=#000000;" parent="1" vertex="1">
                    <mxGeometry x="10" y="936" width="120" height="60" as="geometry"/>
                </mxCell>
                <mxCell id="93" value="std_ipw_panel_att" style="whiteSpace=wrap;html=1;fontSize=12;fillColor=#b0e3e6;strokeColor=#0e8088;fontColor=#000000;" parent="1" vertex="1">
                    <mxGeometry x="10" y="1004" width="120" height="60" as="geometry"/>
                </mxCell>
                <mxCell id="94" value="ipw_rc_att_if" style="whiteSpace=wrap;html=1;fontSize=12;fillColor=#b0e3e6;strokeColor=#0e8088;fontColor=#000000;" parent="1" vertex="1">
                    <mxGeometry x="10" y="1072" width="120" height="60" as="geometry"/>
                </mxCell>
                <mxCell id="95" value="std_ipw_rc_att_if" style="whiteSpace=wrap;html=1;fontSize=12;fillColor=#b0e3e6;strokeColor=#0e8088;fontColor=#000000;" parent="1" vertex="1">
                    <mxGeometry x="10" y="1140" width="120" height="60" as="geometry"/>
                </mxCell>
                <mxCell id="96" value="asymptotic_lin_rep" style="whiteSpace=wrap;html=1;fontSize=12;fillColor=#b0e3e6;strokeColor=#0e8088;fontColor=#000000;" parent="1" vertex="1">
                    <mxGeometry x="10" y="1208" width="120" height="60" as="geometry"/>
                </mxCell>
                <mxCell id="97" value="did.utillity.py" style="whiteSpace=wrap;html=1;fontSize=12;fillColor=#b1ddf0;strokeColor=#10739e;fontColor=#000000;" parent="1" vertex="1">
                    <mxGeometry x="160" y="392" width="120" height="60" as="geometry"/>
                </mxCell>
                <mxCell id="98" value="wols_out_reg" style="whiteSpace=wrap;html=1;fontSize=12;fillColor=#b1ddf0;strokeColor=#10739e;fontColor=#000000;" parent="1" vertex="1">
                    <mxGeometry x="160" y="528" width="120" height="60" as="geometry"/>
                </mxCell>
                <mxCell id="99" value="_analytical_standar _error" style="whiteSpace=wrap;html=1;fontSize=12;fillColor=#b1ddf0;strokeColor=#10739e;fontColor=#000000;" parent="1" vertex="1">
                    <mxGeometry x="160" y="613" width="120" height="60" as="geometry"/>
                </mxCell>
                <mxCell id="100" value="did.pscore_cal.py" style="whiteSpace=wrap;html=1;fontSize=12;fillColor=#d0cee2;strokeColor=#56517e;fontColor=#000000;" parent="1" vertex="1">
                    <mxGeometry x="310" y="400" width="120" height="60" as="geometry"/>
                </mxCell>
                <mxCell id="122" style="edgeStyle=none;html=1;exitX=1;exitY=0;exitDx=0;exitDy=0;entryX=0;entryY=0.5;entryDx=0;entryDy=0;strokeColor=#23445d;fontSize=12;fontColor=#000000;fillColor=#bac8d3;" parent="1" source="106" target="110" edge="1">
                    <mxGeometry relative="1" as="geometry"/>
                </mxCell>
                <mxCell id="123" style="edgeStyle=none;html=1;exitX=1;exitY=0.5;exitDx=0;exitDy=0;entryX=0;entryY=0.25;entryDx=0;entryDy=0;strokeColor=#23445d;fontSize=12;fontColor=#000000;fillColor=#bac8d3;" parent="1" source="106" target="111" edge="1">
                    <mxGeometry relative="1" as="geometry"/>
                </mxCell>
                <mxCell id="124" style="edgeStyle=none;html=1;exitX=1;exitY=0.25;exitDx=0;exitDy=0;entryX=0;entryY=0.25;entryDx=0;entryDy=0;strokeColor=#23445d;fontSize=12;fontColor=#000000;fillColor=#bac8d3;" parent="1" source="101" target="112" edge="1">
                    <mxGeometry relative="1" as="geometry"/>
                </mxCell>
                <mxCell id="125" style="edgeStyle=none;html=1;exitX=1;exitY=0.5;exitDx=0;exitDy=0;entryX=0;entryY=0;entryDx=0;entryDy=0;strokeColor=#23445d;fontSize=12;fontColor=#000000;fillColor=#bac8d3;" parent="1" source="101" target="113" edge="1">
                    <mxGeometry relative="1" as="geometry"/>
                </mxCell>
                <mxCell id="126" style="edgeStyle=none;html=1;exitX=1;exitY=0.5;exitDx=0;exitDy=0;entryX=0;entryY=0;entryDx=0;entryDy=0;strokeColor=#23445d;fontSize=12;fontColor=#000000;fillColor=#bac8d3;" parent="1" source="101" target="116" edge="1">
                    <mxGeometry relative="1" as="geometry"/>
                </mxCell>
                <mxCell id="127" style="edgeStyle=none;html=1;exitX=1;exitY=0.25;exitDx=0;exitDy=0;entryX=0;entryY=0.5;entryDx=0;entryDy=0;strokeColor=#23445d;fontSize=12;fontColor=#000000;fillColor=#bac8d3;" parent="1" source="101" target="117" edge="1">
                    <mxGeometry relative="1" as="geometry"/>
                </mxCell>
                <mxCell id="128" style="edgeStyle=none;html=1;exitX=1;exitY=0.5;exitDx=0;exitDy=0;entryX=0;entryY=0.5;entryDx=0;entryDy=0;strokeColor=#23445d;fontSize=12;fontColor=#000000;fillColor=#bac8d3;" parent="1" source="101" target="118" edge="1">
                    <mxGeometry relative="1" as="geometry"/>
                </mxCell>
                <mxCell id="129" style="edgeStyle=none;html=1;exitX=1;exitY=0.25;exitDx=0;exitDy=0;entryX=0;entryY=0.5;entryDx=0;entryDy=0;strokeColor=#23445d;fontSize=12;fontColor=#000000;fillColor=#bac8d3;" parent="1" source="101" target="119" edge="1">
                    <mxGeometry relative="1" as="geometry"/>
                </mxCell>
                <mxCell id="101" value="pscore_mle" style="whiteSpace=wrap;html=1;fontSize=12;fillColor=#d0cee2;strokeColor=#56517e;fontColor=#000000;" parent="1" vertex="1">
                    <mxGeometry x="310" y="524" width="120" height="60" as="geometry"/>
                </mxCell>
                <mxCell id="107" style="edgeStyle=none;html=1;exitX=1;exitY=0.5;exitDx=0;exitDy=0;entryX=0;entryY=0.5;entryDx=0;entryDy=0;strokeColor=#000000;fontSize=12;fontColor=#000000;" parent="1" source="102" target="105" edge="1">
                    <mxGeometry relative="1" as="geometry"/>
                </mxCell>
                <mxCell id="102" value="loss_ps_ipt_fun" style="whiteSpace=wrap;html=1;fontSize=12;fillColor=#d0cee2;strokeColor=#56517e;fontColor=#000000;" parent="1" vertex="1">
                    <mxGeometry x="310" y="594" width="120" height="60" as="geometry"/>
                </mxCell>
                <mxCell id="103" value="loss_ps_ipt_grad" style="whiteSpace=wrap;html=1;fontSize=12;fillColor=#d0cee2;strokeColor=#56517e;fontColor=#000000;" parent="1" vertex="1">
                    <mxGeometry x="310" y="664" width="120" height="60" as="geometry"/>
                </mxCell>
                <mxCell id="108" style="edgeStyle=none;html=1;exitX=1;exitY=0.5;exitDx=0;exitDy=0;entryX=0;entryY=0.5;entryDx=0;entryDy=0;strokeColor=#000000;fontSize=12;fontColor=#000000;" parent="1" source="105" target="106" edge="1">
                    <mxGeometry relative="1" as="geometry"/>
                </mxCell>
                <mxCell id="105" value="loss_ps_ipt_hess" style="whiteSpace=wrap;html=1;fontSize=12;fillColor=#d0cee2;strokeColor=#56517e;fontColor=#000000;" parent="1" vertex="1">
                    <mxGeometry x="310" y="734" width="120" height="60" as="geometry"/>
                </mxCell>
                <mxCell id="106" value="pscore_ipt" style="whiteSpace=wrap;html=1;fontSize=12;fillColor=#d0cee2;strokeColor=#56517e;fontColor=#000000;" parent="1" vertex="1">
                    <mxGeometry x="310" y="804" width="120" height="60" as="geometry"/>
                </mxCell>
                <mxCell id="109" value="did.did_cal.py" style="whiteSpace=wrap;html=1;fontSize=12;fillColor=#bac8d3;strokeColor=#23445d;fontColor=#000000;" parent="1" vertex="1">
                    <mxGeometry x="920" y="392" width="120" height="60" as="geometry"/>
                </mxCell>
                <mxCell id="110" value="drdid_panel_improved" style="whiteSpace=wrap;html=1;fontSize=12;fillColor=#bac8d3;strokeColor=#23445d;fontColor=#000000;" parent="1" vertex="1">
                    <mxGeometry x="920" y="492" width="120" height="60" as="geometry"/>
                </mxCell>
                <mxCell id="111" value="drdid_rc_improved" style="whiteSpace=wrap;html=1;fontSize=12;fillColor=#bac8d3;strokeColor=#23445d;fontColor=#000000;" parent="1" vertex="1">
                    <mxGeometry x="920" y="557" width="120" height="60" as="geometry"/>
                </mxCell>
                <mxCell id="112" value="drdid_panel_traditional" style="whiteSpace=wrap;html=1;fontSize=12;fillColor=#bac8d3;strokeColor=#23445d;fontColor=#000000;" parent="1" vertex="1">
                    <mxGeometry x="920" y="623" width="120" height="60" as="geometry"/>
                </mxCell>
                <mxCell id="113" value="drdid_rc_traditional" style="whiteSpace=wrap;html=1;fontSize=12;fillColor=#bac8d3;strokeColor=#23445d;fontColor=#000000;" parent="1" vertex="1">
                    <mxGeometry x="920" y="688" width="120" height="60" as="geometry"/>
                </mxCell>
                <mxCell id="114" value="reg_did_panel" style="whiteSpace=wrap;html=1;fontSize=12;fillColor=#bac8d3;strokeColor=#23445d;fontColor=#000000;" parent="1" vertex="1">
                    <mxGeometry x="920" y="754" width="120" height="60" as="geometry"/>
                </mxCell>
                <mxCell id="115" value="reg_did_rc" style="whiteSpace=wrap;html=1;fontSize=12;fillColor=#bac8d3;strokeColor=#23445d;fontColor=#000000;" parent="1" vertex="1">
                    <mxGeometry x="920" y="819" width="120" height="60" as="geometry"/>
                </mxCell>
                <mxCell id="116" value="ipw_did_panel" style="whiteSpace=wrap;html=1;fontSize=12;fillColor=#bac8d3;strokeColor=#23445d;fontColor=#000000;" parent="1" vertex="1">
                    <mxGeometry x="920" y="888" width="120" height="60" as="geometry"/>
                </mxCell>
                <mxCell id="117" value="ipw_did_rc" style="whiteSpace=wrap;html=1;fontSize=12;fillColor=#bac8d3;strokeColor=#23445d;fontColor=#000000;" parent="1" vertex="1">
                    <mxGeometry x="920" y="956" width="120" height="60" as="geometry"/>
                </mxCell>
                <mxCell id="118" value="std_ipw_did_panel" style="whiteSpace=wrap;html=1;fontSize=12;fillColor=#bac8d3;strokeColor=#23445d;fontColor=#000000;" parent="1" vertex="1">
                    <mxGeometry x="920" y="1016" width="120" height="60" as="geometry"/>
                </mxCell>
                <mxCell id="119" value="std_ipw_did_rc" style="whiteSpace=wrap;html=1;fontSize=12;fillColor=#bac8d3;strokeColor=#23445d;fontColor=#000000;" parent="1" vertex="1">
                    <mxGeometry x="920" y="1080" width="120" height="60" as="geometry"/>
                </mxCell>
                <mxCell id="234" style="edgeStyle=none;html=1;exitX=1;exitY=0.25;exitDx=0;exitDy=0;strokeColor=#000000;entryX=0;entryY=0.25;entryDx=0;entryDy=0;" edge="1" parent="1" source="120" target="236">
                    <mxGeometry relative="1" as="geometry">
                        <mxPoint x="2699.999999999999" y="-382.3529411764706" as="targetPoint"/>
                    </mxGeometry>
                </mxCell>
                <mxCell id="120" value="did_cal_funcs" style="whiteSpace=wrap;html=1;fontSize=12;fillColor=#bac8d3;strokeColor=#23445d;fontColor=#000000;" parent="1" vertex="1">
                    <mxGeometry x="920" y="1147" width="120" height="60" as="geometry"/>
                </mxCell>
                <mxCell id="237" style="edgeStyle=none;html=1;exitX=1;exitY=0.25;exitDx=0;exitDy=0;entryX=0;entryY=0.75;entryDx=0;entryDy=0;strokeColor=#000000;" edge="1" parent="1" source="121" target="236">
                    <mxGeometry relative="1" as="geometry"/>
                </mxCell>
                <mxCell id="121" value="get_method_tuple" style="whiteSpace=wrap;html=1;fontSize=12;fillColor=#bac8d3;strokeColor=#23445d;fontColor=#000000;" parent="1" vertex="1">
                    <mxGeometry x="920" y="1212" width="120" height="60" as="geometry"/>
                </mxCell>
                <mxCell id="130" value="did.att_if.py" style="whiteSpace=wrap;html=1;fontSize=12;fillColor=#ffcd28;strokeColor=#d79b00;gradientColor=#ffa500;fontColor=#000000;" parent="1" vertex="1">
                    <mxGeometry x="680" y="479" width="120" height="60" as="geometry"/>
                </mxCell>
                <mxCell id="143" style="edgeStyle=none;html=1;exitX=1;exitY=0.5;exitDx=0;exitDy=0;entryX=0;entryY=0.25;entryDx=0;entryDy=0;strokeColor=#000000;fontSize=12;fontColor=#000000;" parent="1" source="131" target="110" edge="1">
                    <mxGeometry relative="1" as="geometry"/>
                </mxCell>
                <mxCell id="131" value="dr_traditional_panel_att" style="whiteSpace=wrap;html=1;fontSize=12;fillColor=#ffcd28;strokeColor=#d79b00;gradientColor=#ffa500;fontColor=#000000;" parent="1" vertex="1">
                    <mxGeometry x="680" y="553" width="120" height="60" as="geometry"/>
                </mxCell>
                <mxCell id="144" style="edgeStyle=none;html=1;exitX=1;exitY=0.5;exitDx=0;exitDy=0;entryX=0;entryY=0.5;entryDx=0;entryDy=0;strokeColor=#000000;fontSize=12;fontColor=#000000;" parent="1" source="132" target="111" edge="1">
                    <mxGeometry relative="1" as="geometry"/>
                </mxCell>
                <mxCell id="132" value="dr_traditional_rc_att_if" style="whiteSpace=wrap;html=1;fontSize=12;fillColor=#ffcd28;strokeColor=#d79b00;gradientColor=#ffa500;fontColor=#000000;" parent="1" vertex="1">
                    <mxGeometry x="680" y="621" width="120" height="60" as="geometry"/>
                </mxCell>
                <mxCell id="146" style="edgeStyle=none;html=1;exitX=1;exitY=0.5;exitDx=0;exitDy=0;entryX=0;entryY=0.5;entryDx=0;entryDy=0;strokeColor=#000000;fontSize=12;fontColor=#000000;" parent="1" source="133" target="112" edge="1">
                    <mxGeometry relative="1" as="geometry"/>
                </mxCell>
                <mxCell id="133" value="dr_improved_panel att_if" style="whiteSpace=wrap;html=1;fontSize=12;fillColor=#ffcd28;strokeColor=#d79b00;gradientColor=#ffa500;fontColor=#000000;" parent="1" vertex="1">
                    <mxGeometry x="680" y="689" width="120" height="60" as="geometry"/>
                </mxCell>
                <mxCell id="147" style="edgeStyle=none;html=1;exitX=1;exitY=0.5;exitDx=0;exitDy=0;entryX=0;entryY=0.5;entryDx=0;entryDy=0;strokeColor=#000000;fontSize=12;fontColor=#000000;" parent="1" source="134" target="113" edge="1">
                    <mxGeometry relative="1" as="geometry"/>
                </mxCell>
                <mxCell id="134" value="dr_improved_rc att_if" style="whiteSpace=wrap;html=1;fontSize=12;fillColor=#ffcd28;strokeColor=#d79b00;gradientColor=#ffa500;fontColor=#000000;" parent="1" vertex="1">
                    <mxGeometry x="680" y="757" width="120" height="60" as="geometry"/>
                </mxCell>
                <mxCell id="148" style="edgeStyle=none;html=1;exitX=1;exitY=0.5;exitDx=0;exitDy=0;entryX=0;entryY=0.5;entryDx=0;entryDy=0;strokeColor=#000000;fontSize=12;fontColor=#000000;" parent="1" source="135" target="114" edge="1">
                    <mxGeometry relative="1" as="geometry"/>
                </mxCell>
                <mxCell id="135" value="reg_panel_att_if" style="whiteSpace=wrap;html=1;fontSize=12;fillColor=#ffcd28;strokeColor=#d79b00;gradientColor=#ffa500;fontColor=#000000;" parent="1" vertex="1">
                    <mxGeometry x="680" y="825" width="120" height="60" as="geometry"/>
                </mxCell>
                <mxCell id="151" style="edgeStyle=none;html=1;exitX=1;exitY=0.5;exitDx=0;exitDy=0;entryX=0;entryY=0.25;entryDx=0;entryDy=0;strokeColor=#000000;fontSize=12;fontColor=#000000;" parent="1" source="136" target="115" edge="1">
                    <mxGeometry relative="1" as="geometry"/>
                </mxCell>
                <mxCell id="136" value="reg_rc_att_if" style="whiteSpace=wrap;html=1;fontSize=12;fillColor=#ffcd28;strokeColor=#d79b00;gradientColor=#ffa500;fontColor=#000000;" parent="1" vertex="1">
                    <mxGeometry x="680" y="969" width="120" height="60" as="geometry"/>
                </mxCell>
                <mxCell id="152" style="edgeStyle=none;html=1;exitX=1;exitY=0.5;exitDx=0;exitDy=0;entryX=0;entryY=0.5;entryDx=0;entryDy=0;strokeColor=#000000;fontSize=12;fontColor=#000000;" parent="1" source="137" target="116" edge="1">
                    <mxGeometry relative="1" as="geometry"/>
                </mxCell>
                <mxCell id="137" value="ipw_panel_att_if" style="whiteSpace=wrap;html=1;fontSize=12;fillColor=#ffcd28;strokeColor=#d79b00;gradientColor=#ffa500;fontColor=#000000;" parent="1" vertex="1">
                    <mxGeometry x="680" y="1037" width="120" height="60" as="geometry"/>
                </mxCell>
                <mxCell id="155" style="edgeStyle=none;html=1;exitX=1;exitY=0.5;exitDx=0;exitDy=0;entryX=0;entryY=0.75;entryDx=0;entryDy=0;strokeColor=#000000;fontSize=12;fontColor=#000000;" parent="1" source="138" target="118" edge="1">
                    <mxGeometry relative="1" as="geometry"/>
                </mxCell>
                <mxCell id="138" value="std_ipw_panel_att_if" style="whiteSpace=wrap;html=1;fontSize=12;fillColor=#ffcd28;strokeColor=#d79b00;gradientColor=#ffa500;fontColor=#000000;" parent="1" vertex="1">
                    <mxGeometry x="680" y="1105" width="120" height="60" as="geometry"/>
                </mxCell>
                <mxCell id="153" style="edgeStyle=none;html=1;exitX=1;exitY=0.5;exitDx=0;exitDy=0;entryX=0;entryY=0.75;entryDx=0;entryDy=0;strokeColor=#000000;fontSize=12;fontColor=#000000;" parent="1" source="139" target="117" edge="1">
                    <mxGeometry relative="1" as="geometry"/>
                </mxCell>
                <mxCell id="139" value="ipw_rc_att_if" style="whiteSpace=wrap;html=1;fontSize=12;fillColor=#ffcd28;strokeColor=#d79b00;gradientColor=#ffa500;fontColor=#000000;" parent="1" vertex="1">
                    <mxGeometry x="680" y="1173" width="120" height="60" as="geometry"/>
                </mxCell>
                <mxCell id="156" style="edgeStyle=none;html=1;exitX=1;exitY=0.5;exitDx=0;exitDy=0;entryX=0;entryY=0.75;entryDx=0;entryDy=0;strokeColor=#000000;fontSize=12;fontColor=#000000;" parent="1" source="140" target="119" edge="1">
                    <mxGeometry relative="1" as="geometry"/>
                </mxCell>
                <mxCell id="140" value="std_ipw_rc_att_if" style="whiteSpace=wrap;html=1;fontSize=12;fillColor=#ffcd28;strokeColor=#d79b00;gradientColor=#ffa500;fontColor=#000000;" parent="1" vertex="1">
                    <mxGeometry x="680" y="1241" width="120" height="60" as="geometry"/>
                </mxCell>
                <mxCell id="157" style="edgeStyle=none;html=1;exitX=1;exitY=0.5;exitDx=0;exitDy=0;entryX=0;entryY=0.25;entryDx=0;entryDy=0;strokeColor=#000000;fontSize=12;fontColor=#000000;" parent="1" source="141" target="131" edge="1">
                    <mxGeometry relative="1" as="geometry"/>
                </mxCell>
                <mxCell id="158" style="edgeStyle=none;html=1;exitX=1;exitY=0.5;exitDx=0;exitDy=0;entryX=0;entryY=0.5;entryDx=0;entryDy=0;strokeColor=#000000;fontSize=12;fontColor=#000000;" parent="1" source="141" target="136" edge="1">
                    <mxGeometry relative="1" as="geometry"/>
                </mxCell>
                <mxCell id="141" value="asymptotic_lin_repr" style="whiteSpace=wrap;html=1;fontSize=12;fillColor=#ffcd28;strokeColor=#d79b00;gradientColor=#ffa500;fontColor=#000000;" parent="1" vertex="1">
                    <mxGeometry x="440" y="959" width="120" height="60" as="geometry"/>
                </mxCell>
                <mxCell id="159" value="did" style="whiteSpace=wrap;html=1;fontSize=12;fontColor=#FFFFFF;fillColor=#000000;" parent="1" vertex="1">
                    <mxGeometry x="-10" y="220" width="1060" height="150" as="geometry"/>
                </mxCell>
                <mxCell id="172" style="edgeStyle=none;html=1;exitX=1;exitY=0.5;exitDx=0;exitDy=0;entryX=0;entryY=0.75;entryDx=0;entryDy=0;strokeColor=#000000;fontSize=12;fontColor=#000000;" parent="1" source="160" target="19" edge="1">
                    <mxGeometry relative="1" as="geometry"/>
                </mxCell>
                <mxCell id="160" value="stack_did_data" style="whiteSpace=wrap;html=1;fontSize=12;fillColor=#f8cecc;gradientColor=#ea6b66;strokeColor=#b85450;fontColor=#000000;" parent="1" vertex="1">
                    <mxGeometry x="550" y="10" width="120" height="60" as="geometry"/>
                </mxCell>
                <mxCell id="166" style="edgeStyle=none;html=1;exitX=1;exitY=0.5;exitDx=0;exitDy=0;entryX=0;entryY=0.25;entryDx=0;entryDy=0;strokeColor=#000000;fontSize=12;fontColor=#000000;" parent="1" source="161" target="163" edge="1">
                    <mxGeometry relative="1" as="geometry"/>
                </mxCell>
                <mxCell id="161" value="cochort_mask" style="whiteSpace=wrap;html=1;fontSize=12;fillColor=#f8cecc;gradientColor=#ea6b66;strokeColor=#b85450;fontColor=#000000;" parent="1" vertex="1">
                    <mxGeometry x="140" width="120" height="60" as="geometry"/>
                </mxCell>
                <mxCell id="167" style="edgeStyle=none;html=1;exitX=1;exitY=0.5;exitDx=0;exitDy=0;entryX=0;entryY=0.5;entryDx=0;entryDy=0;strokeColor=#000000;fontSize=12;fontColor=#000000;" parent="1" source="162" target="163" edge="1">
                    <mxGeometry relative="1" as="geometry"/>
                </mxCell>
                <mxCell id="162" value="never_treated_mask" style="whiteSpace=wrap;html=1;fontSize=12;fillColor=#f8cecc;gradientColor=#ea6b66;strokeColor=#b85450;fontColor=#000000;" parent="1" vertex="1">
                    <mxGeometry x="140" y="70" width="120" height="60" as="geometry"/>
                </mxCell>
                <mxCell id="168" style="edgeStyle=none;html=1;exitX=1;exitY=0.5;exitDx=0;exitDy=0;entryX=0;entryY=0.5;entryDx=0;entryDy=0;strokeColor=#000000;fontSize=12;fontColor=#000000;" parent="1" source="163" target="160" edge="1">
                    <mxGeometry relative="1" as="geometry"/>
                </mxCell>
                <mxCell id="163" value="get_stacked_mask" style="whiteSpace=wrap;html=1;fontSize=12;fillColor=#f8cecc;gradientColor=#ea6b66;strokeColor=#b85450;fontColor=#000000;" parent="1" vertex="1">
                    <mxGeometry x="320" width="120" height="60" as="geometry"/>
                </mxCell>
                <mxCell id="169" style="edgeStyle=none;html=1;exitX=1;exitY=0.5;exitDx=0;exitDy=0;entryX=0;entryY=0.75;entryDx=0;entryDy=0;strokeColor=#000000;fontSize=12;fontColor=#000000;" parent="1" source="164" target="160" edge="1">
                    <mxGeometry relative="1" as="geometry"/>
                </mxCell>
                <mxCell id="164" value="get_cohorts" style="whiteSpace=wrap;html=1;fontSize=12;fillColor=#f8cecc;gradientColor=#ea6b66;strokeColor=#b85450;fontColor=#000000;" parent="1" vertex="1">
                    <mxGeometry x="320" y="80" width="120" height="60" as="geometry"/>
                </mxCell>
                <mxCell id="171" style="edgeStyle=none;html=1;exitX=1;exitY=0.5;exitDx=0;exitDy=0;entryX=0;entryY=0.75;entryDx=0;entryDy=0;strokeColor=#000000;fontSize=12;fontColor=#000000;" parent="1" source="165" target="28" edge="1">
                    <mxGeometry relative="1" as="geometry"/>
                </mxCell>
                <mxCell id="165" value="add_stack_fe" style="whiteSpace=wrap;html=1;fontSize=12;fillColor=#f8cecc;gradientColor=#ea6b66;strokeColor=#b85450;fontColor=#000000;" parent="1" vertex="1">
                    <mxGeometry x="550" y="90" width="120" height="60" as="geometry"/>
                </mxCell>
                <mxCell id="173" value="atgt.utility.py" style="whiteSpace=wrap;html=1;fontSize=12;fontColor=#ffffff;fillColor=#a20025;strokeColor=#6F0000;" parent="1" vertex="1">
                    <mxGeometry x="1275" y="-680" width="120" height="60" as="geometry"/>
                </mxCell>
                <mxCell id="174" value="ATTgtResult" style="whiteSpace=wrap;html=1;fontSize=12;fontColor=#ffffff;fillColor=#a20025;strokeColor=#6F0000;" parent="1" vertex="1">
                    <mxGeometry x="1275" y="-580" width="120" height="60" as="geometry"/>
                </mxCell>
                <mxCell id="179" value="" style="edgeStyle=none;html=1;strokeColor=#6F0000;fontSize=12;fontColor=#FFFFFF;fillColor=#a20025;" parent="1" source="177" target="178" edge="1">
                    <mxGeometry relative="1" as="geometry"/>
                </mxCell>
                <mxCell id="177" value="get_agg_attr_name" style="whiteSpace=wrap;html=1;fontSize=12;fontColor=#ffffff;fillColor=#a20025;strokeColor=#6F0000;" parent="1" vertex="1">
                    <mxGeometry x="1120" y="-520" width="120" height="60" as="geometry"/>
                </mxCell>
                <mxCell id="254" style="edgeStyle=none;html=1;exitX=1;exitY=0.5;exitDx=0;exitDy=0;entryX=0;entryY=0.5;entryDx=0;entryDy=0;strokeColor=#000000;" edge="1" parent="1" source="178" target="236">
                    <mxGeometry relative="1" as="geometry"/>
                </mxCell>
                <mxCell id="255" style="edgeStyle=none;html=1;exitX=1;exitY=0.75;exitDx=0;exitDy=0;entryX=0;entryY=0.5;entryDx=0;entryDy=0;strokeColor=#000000;" edge="1" parent="1" source="178" target="245">
                    <mxGeometry relative="1" as="geometry"/>
                </mxCell>
                <mxCell id="178" value="extract_dict_ntl" style="whiteSpace=wrap;html=1;fillColor=#a20025;fontColor=#ffffff;strokeColor=#6F0000;" parent="1" vertex="1">
                    <mxGeometry x="1360" y="-470" width="120" height="60" as="geometry"/>
                </mxCell>
                <mxCell id="187" style="edgeStyle=none;html=1;exitX=1;exitY=0.5;exitDx=0;exitDy=0;entryX=0;entryY=0.5;entryDx=0;entryDy=0;strokeColor=#6F0000;fontSize=12;fontColor=#FFFFFF;fillColor=#a20025;" parent="1" source="180" target="186" edge="1">
                    <mxGeometry relative="1" as="geometry"/>
                </mxCell>
                <mxCell id="180" value="filter_ntl" style="whiteSpace=wrap;html=1;fontSize=12;fontColor=#ffffff;fillColor=#a20025;strokeColor=#6F0000;" parent="1" vertex="1">
                    <mxGeometry x="1120" y="-443" width="120" height="60" as="geometry"/>
                </mxCell>
                <mxCell id="186" value="wald_pre_test" style="whiteSpace=wrap;html=1;fontSize=12;fontColor=#ffffff;fillColor=#a20025;strokeColor=#6F0000;" parent="1" vertex="1">
                    <mxGeometry x="1360" y="-400" width="120" height="60" as="geometry"/>
                </mxCell>
                <mxCell id="189" style="edgeStyle=none;html=1;exitX=1;exitY=0.5;exitDx=0;exitDy=0;entryX=0;entryY=0.75;entryDx=0;entryDy=0;strokeColor=#6F0000;fontSize=12;fontColor=#FFFFFF;fillColor=#a20025;" parent="1" source="188" target="186" edge="1">
                    <mxGeometry relative="1" as="geometry"/>
                </mxCell>
                <mxCell id="188" value="get_att_from_ntl" style="whiteSpace=wrap;html=1;fontSize=12;fontColor=#ffffff;fillColor=#a20025;strokeColor=#6F0000;" parent="1" vertex="1">
                    <mxGeometry x="1120" y="-367" width="120" height="60" as="geometry"/>
                </mxCell>
                <mxCell id="191" style="edgeStyle=none;html=1;exitX=1;exitY=0.5;exitDx=0;exitDy=0;entryX=0;entryY=1;entryDx=0;entryDy=0;strokeColor=#6F0000;fontSize=12;fontColor=#FFFFFF;fillColor=#a20025;" parent="1" source="190" target="186" edge="1">
                    <mxGeometry relative="1" as="geometry"/>
                </mxCell>
                <mxCell id="190" value="stack_influence_funcs" style="whiteSpace=wrap;html=1;fontSize=12;fontColor=#ffffff;fillColor=#a20025;strokeColor=#6F0000;" parent="1" vertex="1">
                    <mxGeometry x="1120" y="-290" width="120" height="60" as="geometry"/>
                </mxCell>
                <mxCell id="193" style="edgeStyle=none;html=1;exitX=1;exitY=0.5;exitDx=0;exitDy=0;entryX=0.25;entryY=1;entryDx=0;entryDy=0;strokeColor=#6F0000;fontSize=12;fontColor=#FFFFFF;fillColor=#a20025;" parent="1" source="192" target="186" edge="1">
                    <mxGeometry relative="1" as="geometry"/>
                </mxCell>
                <mxCell id="192" value="get_vcv_from_if" style="whiteSpace=wrap;html=1;fontSize=12;fontColor=#ffffff;fillColor=#a20025;strokeColor=#6F0000;" parent="1" vertex="1">
                    <mxGeometry x="1120" y="-213" width="120" height="60" as="geometry"/>
                </mxCell>
                <mxCell id="198" style="edgeStyle=none;html=1;exitX=1;exitY=0.5;exitDx=0;exitDy=0;entryX=0;entryY=0.5;entryDx=0;entryDy=0;strokeColor=#6F0000;fontSize=12;fontColor=#FFFFFF;fillColor=#a20025;" parent="1" source="196" target="197" edge="1">
                    <mxGeometry relative="1" as="geometry"/>
                </mxCell>
                <mxCell id="196" value="extract_dict_ntl" style="whiteSpace=wrap;html=1;fontSize=12;fontColor=#ffffff;fillColor=#a20025;strokeColor=#6F0000;" parent="1" vertex="1">
                    <mxGeometry x="1120" y="-137" width="120" height="60" as="geometry"/>
                </mxCell>
                <mxCell id="197" value="_extract_dict_sg_ntl" style="whiteSpace=wrap;html=1;fontSize=12;fontColor=#ffffff;fillColor=#a20025;strokeColor=#6F0000;" parent="1" vertex="1">
                    <mxGeometry x="1360" y="-120" width="120" height="60" as="geometry"/>
                </mxCell>
                <mxCell id="201" style="edgeStyle=none;html=1;exitX=1;exitY=0.5;exitDx=0;exitDy=0;entryX=0;entryY=0.25;entryDx=0;entryDy=0;fillColor=#a20025;strokeColor=#6F0000;" edge="1" parent="1" source="199" target="200">
                    <mxGeometry relative="1" as="geometry"/>
                </mxCell>
                <mxCell id="202" style="edgeStyle=none;html=1;exitX=1;exitY=0.5;exitDx=0;exitDy=0;entryX=0;entryY=0.25;entryDx=0;entryDy=0;strokeColor=#6F0000;fillColor=#a20025;" edge="1" parent="1" source="199" target="200">
                    <mxGeometry relative="1" as="geometry"/>
                </mxCell>
                <mxCell id="256" style="edgeStyle=none;html=1;exitX=1;exitY=0.25;exitDx=0;exitDy=0;strokeColor=#000000;entryX=0;entryY=0.5;entryDx=0;entryDy=0;" edge="1" parent="1" source="199" target="246">
                    <mxGeometry relative="1" as="geometry">
                        <mxPoint x="2669.999999999999" y="-45.05882352941171" as="targetPoint"/>
                    </mxGeometry>
                </mxCell>
                <mxCell id="199" value="extract_dict_ntl_&lt;br&gt;for_difference" style="whiteSpace=wrap;html=1;fillColor=#a20025;fontColor=#ffffff;strokeColor=#6F0000;" vertex="1" parent="1">
                    <mxGeometry x="1120" y="-60" width="120" height="60" as="geometry"/>
                </mxCell>
                <mxCell id="200" value="list_fs_ntl" style="whiteSpace=wrap;html=1;fillColor=#a20025;fontColor=#ffffff;strokeColor=#6F0000;" vertex="1" parent="1">
                    <mxGeometry x="1360" y="-30" width="120" height="60" as="geometry"/>
                </mxCell>
                <mxCell id="204" style="edgeStyle=none;html=1;exitX=1;exitY=0.5;exitDx=0;exitDy=0;entryX=0;entryY=0.5;entryDx=0;entryDy=0;strokeColor=#6F0000;fillColor=#a20025;" edge="1" parent="1" source="203" target="200">
                    <mxGeometry relative="1" as="geometry"/>
                </mxCell>
                <mxCell id="203" value="out_df_index" style="whiteSpace=wrap;html=1;fillColor=#a20025;fontColor=#ffffff;strokeColor=#6F0000;" vertex="1" parent="1">
                    <mxGeometry x="1120" y="17" width="120" height="60" as="geometry"/>
                </mxCell>
                <mxCell id="207" style="edgeStyle=none;html=1;exitX=1;exitY=0.5;exitDx=0;exitDy=0;entryX=0;entryY=0.25;entryDx=0;entryDy=0;strokeColor=#6F0000;fillColor=#a20025;" edge="1" parent="1" source="205" target="206">
                    <mxGeometry relative="1" as="geometry"/>
                </mxCell>
                <mxCell id="205" value="ntl_to_dataframe" style="whiteSpace=wrap;html=1;fillColor=#a20025;fontColor=#ffffff;strokeColor=#6F0000;" vertex="1" parent="1">
                    <mxGeometry x="1120" y="170" width="120" height="60" as="geometry"/>
                </mxCell>
                <mxCell id="257" style="edgeStyle=none;html=1;exitX=1;exitY=0.5;exitDx=0;exitDy=0;entryX=0;entryY=1;entryDx=0;entryDy=0;strokeColor=#000000;" edge="1" parent="1" source="206" target="246">
                    <mxGeometry relative="1" as="geometry"/>
                </mxCell>
                <mxCell id="206" value="output_dict_to_&lt;br&gt;data_frame" style="whiteSpace=wrap;html=1;fillColor=#a20025;fontColor=#ffffff;strokeColor=#6F0000;" vertex="1" parent="1">
                    <mxGeometry x="1360" y="70" width="120" height="60" as="geometry"/>
                </mxCell>
                <mxCell id="209" style="edgeStyle=none;html=1;exitX=1;exitY=0.5;exitDx=0;exitDy=0;entryX=0;entryY=0.75;entryDx=0;entryDy=0;strokeColor=#6F0000;fillColor=#a20025;" edge="1" parent="1" source="208" target="200">
                    <mxGeometry relative="1" as="geometry"/>
                </mxCell>
                <mxCell id="208" value="fix_std_error_cols" style="whiteSpace=wrap;html=1;fillColor=#a20025;fontColor=#ffffff;strokeColor=#6F0000;" vertex="1" parent="1">
                    <mxGeometry x="1120" y="93" width="120" height="60" as="geometry"/>
                </mxCell>
                <mxCell id="210" value="att.mboot.py" style="whiteSpace=wrap;html=1;fillColor=#d80073;fontColor=#ffffff;strokeColor=#A50040;" vertex="1" parent="1">
                    <mxGeometry x="1760" y="-670" width="120" height="60" as="geometry"/>
                </mxCell>
                <mxCell id="227" style="edgeStyle=none;html=1;exitX=0.5;exitY=1;exitDx=0;exitDy=0;entryX=0;entryY=0.5;entryDx=0;entryDy=0;strokeColor=#000000;" edge="1" parent="1" source="222" target="226">
                    <mxGeometry relative="1" as="geometry">
                        <mxPoint x="1850" y="539" as="sourcePoint"/>
                    </mxGeometry>
                </mxCell>
                <mxCell id="211" value="mboot" style="whiteSpace=wrap;html=1;fillColor=#d80073;fontColor=#ffffff;strokeColor=#A50040;" vertex="1" parent="1">
                    <mxGeometry x="2020" y="-280" width="120" height="60" as="geometry"/>
                </mxCell>
                <mxCell id="216" style="edgeStyle=none;html=1;exitX=1;exitY=0.5;exitDx=0;exitDy=0;entryX=0;entryY=0.25;entryDx=0;entryDy=0;strokeColor=#A50040;fillColor=#d80073;" edge="1" parent="1" source="214" target="211">
                    <mxGeometry relative="1" as="geometry"/>
                </mxCell>
                <mxCell id="214" value="multiplier_bootstrap&lt;br&gt;joblib" style="whiteSpace=wrap;html=1;fillColor=#d80073;fontColor=#ffffff;strokeColor=#A50040;" vertex="1" parent="1">
                    <mxGeometry x="1650" y="-407" width="120" height="60" as="geometry"/>
                </mxCell>
                <mxCell id="217" style="edgeStyle=none;html=1;exitX=1;exitY=0.5;exitDx=0;exitDy=0;entryX=0;entryY=0.75;entryDx=0;entryDy=0;strokeColor=#A50040;fillColor=#d80073;" edge="1" parent="1" source="215" target="211">
                    <mxGeometry relative="1" as="geometry"/>
                </mxCell>
                <mxCell id="215" value="multiplier_bootstrap" style="whiteSpace=wrap;html=1;fillColor=#d80073;fontColor=#ffffff;strokeColor=#A50040;" vertex="1" parent="1">
                    <mxGeometry x="1790" y="-290" width="120" height="60" as="geometry"/>
                </mxCell>
                <mxCell id="219" style="edgeStyle=none;html=1;exitX=1;exitY=0.5;exitDx=0;exitDy=0;entryX=0;entryY=0.25;entryDx=0;entryDy=0;strokeColor=#A50040;fillColor=#d80073;" edge="1" parent="1" source="218" target="215">
                    <mxGeometry relative="1" as="geometry"/>
                </mxCell>
                <mxCell id="218" value="boot_crit_val" style="whiteSpace=wrap;html=1;fillColor=#d80073;fontColor=#ffffff;strokeColor=#A50040;" vertex="1" parent="1">
                    <mxGeometry x="1600" y="-315" width="120" height="60" as="geometry"/>
                </mxCell>
                <mxCell id="221" style="edgeStyle=none;html=1;exitX=1;exitY=0.5;exitDx=0;exitDy=0;entryX=0;entryY=0.5;entryDx=0;entryDy=0;strokeColor=#A50040;fillColor=#d80073;" edge="1" parent="1" source="220" target="215">
                    <mxGeometry relative="1" as="geometry"/>
                </mxCell>
                <mxCell id="220" value="mean_inf_func_by&lt;br&gt;cluster" style="whiteSpace=wrap;html=1;fillColor=#d80073;fontColor=#ffffff;strokeColor=#A50040;" vertex="1" parent="1">
                    <mxGeometry x="1600" y="-230" width="120" height="60" as="geometry"/>
                </mxCell>
                <mxCell id="251" style="edgeStyle=none;html=1;exitX=1;exitY=0.5;exitDx=0;exitDy=0;entryX=0;entryY=0.75;entryDx=0;entryDy=0;strokeColor=#000000;" edge="1" parent="1" source="222" target="246">
                    <mxGeometry relative="1" as="geometry"/>
                </mxCell>
                <mxCell id="253" style="edgeStyle=none;html=1;exitX=1;exitY=0.5;exitDx=0;exitDy=0;strokeColor=#000000;entryX=0;entryY=0.5;entryDx=0;entryDy=0;" edge="1" parent="1" source="222" target="252">
                    <mxGeometry relative="1" as="geometry">
                        <mxPoint x="2580" y="-100" as="targetPoint"/>
                    </mxGeometry>
                </mxCell>
                <mxCell id="222" value="get_cluster_groups" style="whiteSpace=wrap;html=1;fillColor=#d80073;fontColor=#ffffff;strokeColor=#A50040;" vertex="1" parent="1">
                    <mxGeometry x="2010" y="-100" width="120" height="60" as="geometry"/>
                </mxCell>
                <mxCell id="224" style="edgeStyle=none;html=1;exitX=1;exitY=0.5;exitDx=0;exitDy=0;entryX=0;entryY=0.5;entryDx=0;entryDy=0;strokeColor=#A50040;fillColor=#d80073;" edge="1" parent="1" source="223" target="222">
                    <mxGeometry relative="1" as="geometry">
                        <mxPoint x="1800" y="10" as="sourcePoint"/>
                    </mxGeometry>
                </mxCell>
                <mxCell id="223" value="_get_cluester_groups&lt;br&gt;_from_series" style="whiteSpace=wrap;html=1;fillColor=#d80073;fontColor=#ffffff;strokeColor=#A50040;" vertex="1" parent="1">
                    <mxGeometry x="1670" y="-100" width="120" height="60" as="geometry"/>
                </mxCell>
                <mxCell id="225" value="sttgt.attgt_call.py" style="whiteSpace=wrap;html=1;" vertex="1" parent="1">
                    <mxGeometry x="2240" y="100" width="120" height="60" as="geometry"/>
                </mxCell>
                <mxCell id="250" style="edgeStyle=none;html=1;exitX=1;exitY=0.5;exitDx=0;exitDy=0;entryX=0;entryY=0.5;entryDx=0;entryDy=0;strokeColor=#000000;" edge="1" parent="1" source="226" target="236">
                    <mxGeometry relative="1" as="geometry"/>
                </mxCell>
                <mxCell id="226" value="get_standar_errors" style="whiteSpace=wrap;html=1;" vertex="1" parent="1">
                    <mxGeometry x="2240" y="200" width="120" height="60" as="geometry"/>
                </mxCell>
                <mxCell id="249" style="edgeStyle=none;html=1;exitX=1;exitY=0.5;exitDx=0;exitDy=0;entryX=0;entryY=0.25;entryDx=0;entryDy=0;strokeColor=#000000;" edge="1" parent="1" source="228" target="236">
                    <mxGeometry relative="1" as="geometry"/>
                </mxCell>
                <mxCell id="228" value="get_att_gt" style="whiteSpace=wrap;html=1;" vertex="1" parent="1">
                    <mxGeometry x="2240" y="300" width="120" height="60" as="geometry"/>
                </mxCell>
                <mxCell id="229" style="edgeStyle=none;html=1;exitX=0.5;exitY=0;exitDx=0;exitDy=0;entryX=0.75;entryY=0;entryDx=0;entryDy=0;strokeColor=#000000;" edge="1" parent="1" source="228" target="228">
                    <mxGeometry relative="1" as="geometry"/>
                </mxCell>
                <mxCell id="230" value="attgt.aggregate.py" style="whiteSpace=wrap;html=1;" vertex="1" parent="1">
                    <mxGeometry x="2430" y="70" width="120" height="60" as="geometry"/>
                </mxCell>
                <mxCell id="248" style="edgeStyle=none;html=1;exitX=1;exitY=0.5;exitDx=0;exitDy=0;entryX=0;entryY=0.5;entryDx=0;entryDy=0;strokeColor=#000000;" edge="1" parent="1" source="231" target="246">
                    <mxGeometry relative="1" as="geometry"/>
                </mxCell>
                <mxCell id="231" value="get_weights" style="whiteSpace=wrap;html=1;" vertex="1" parent="1">
                    <mxGeometry x="2420" y="300" width="120" height="60" as="geometry"/>
                </mxCell>
                <mxCell id="247" style="edgeStyle=none;html=1;exitX=1;exitY=0.75;exitDx=0;exitDy=0;entryX=0;entryY=0.25;entryDx=0;entryDy=0;strokeColor=#000000;" edge="1" parent="1" source="232" target="246">
                    <mxGeometry relative="1" as="geometry"/>
                </mxCell>
                <mxCell id="232" value="_Aggregate_GT" style="whiteSpace=wrap;html=1;" vertex="1" parent="1">
                    <mxGeometry x="2420" y="210" width="120" height="60" as="geometry"/>
                </mxCell>
                <mxCell id="233" value="attgt.attgt.py" style="whiteSpace=wrap;html=1;" vertex="1" parent="1">
                    <mxGeometry x="2680" y="100" width="120" height="60" as="geometry"/>
                </mxCell>
                <mxCell id="235" value="ATTGT, class" style="whiteSpace=wrap;html=1;" vertex="1" parent="1">
                    <mxGeometry x="2680" y="174" width="120" height="60" as="geometry"/>
                </mxCell>
                <mxCell id="236" value="ATTgt.fit" style="whiteSpace=wrap;html=1;" vertex="1" parent="1">
                    <mxGeometry x="2680" y="250" width="120" height="60" as="geometry"/>
                </mxCell>
                <mxCell id="239" value="_preprocess_covariates" style="whiteSpace=wrap;html=1;" vertex="1" parent="1">
                    <mxGeometry x="2680" y="340" width="120" height="60" as="geometry"/>
                </mxCell>
                <mxCell id="245" value="results" style="whiteSpace=wrap;html=1;" vertex="1" parent="1">
                    <mxGeometry x="2680" y="420" width="120" height="60" as="geometry"/>
                </mxCell>
                <mxCell id="246" value="aggregate" style="whiteSpace=wrap;html=1;" vertex="1" parent="1">
                    <mxGeometry x="2680" y="500" width="120" height="60" as="geometry"/>
                </mxCell>
                <mxCell id="252" value="_get_cluster_for&lt;br&gt;difference" style="whiteSpace=wrap;html=1;" vertex="1" parent="1">
                    <mxGeometry x="2680" y="596" width="120" height="60" as="geometry"/>
                </mxCell>
            </root>
        </mxGraphModel>
    </diagram>
</mxfile>